<svg xmlns="http://www.w3.org/2000/svg" version="1.1" xmlns:xlink="http://www.w3.org/1999/xlink" xmlns:svgjs="http://svgjs.dev/svgjs" width="2000" height="1500" viewBox="0 0 2000 1500"><rect width="2000" height="1500" fill="#ff0000"></rect><g transform="matrix(0.75,0,0,0.75,249.78667664670684,-0.21332335329350371)"><svg viewBox="0 0 334 334" data-background-color="#ff0000" preserveAspectRatio="xMidYMid meet" height="2000" width="2000" xmlns="http://www.w3.org/2000/svg" xmlns:xlink="http://www.w3.org/1999/xlink"><g id="tight-bounds" transform="matrix(1,0,0,1,0.04749999999998522,0.04750000000001364)"><svg viewBox="0 0 333.90454557049503 333.90454557049503" height="333.90454557049503" width="333.90454557049503"><g><svg></svg></g><g><svg viewBox="0 0 333.90454557049503 333.90454557049503" height="333.90454557049503" width="333.90454557049503"><g><path d="M0 166.952c0-92.205 74.747-166.952 166.952-166.952 92.205 0 166.952 74.747 166.953 166.952 0 92.205-74.747 166.952-166.953 166.953-92.205 0-166.952-74.747-166.952-166.953zM166.952 316.63c82.665 0 149.677-67.013 149.678-149.678 0-82.665-67.013-149.677-149.678-149.677-82.665 0-149.677 67.013-149.677 149.677 0 82.665 67.013 149.677 149.677 149.678z" data-fill-palette-color="tertiary" fill="#ff0000" stroke="transparent"></path><ellipse rx="160.27418187383762" ry="160.27418187383762" cx="166.95227278524752" cy="166.95227278524752" fill="#ff0000" stroke="transparent" stroke-width="0" fill-opacity="1" data-fill-palette-color="tertiary"></ellipse></g><g transform="matrix(1,0,0,1,80.81046443216567,71.17305217166896)"><svg viewBox="0 0 172.28361670616368 191.55844122715712" height="191.55844122715712" width="172.28361670616368"><g><svg viewBox="0 0 172.28361670616368 191.55844122715712" height="191.55844122715712" width="172.28361670616368"><g><svg viewBox="0 0 172.28361670616368 191.55844122715712" height="191.55844122715712" width="172.28361670616368"><g><svg viewBox="0 0 172.28361670616368 191.55844122715712" height="191.55844122715712" width="172.28361670616368"><g id="textblocktransform"><svg viewBox="0 0 172.28361670616368 191.55844122715712" height="191.55844122715712" width="172.28361670616368" id="textblock"><g><svg viewBox="0 0 172.28361670616368 191.55844122715712" height="191.55844122715712" width="172.28361670616368"><g transform="matrix(1,0,0,1,0,0)"><svg width="172.28361670616368" viewBox="3.7 -39.95 36.199999999999996 40.25" height="191.55844122715712" data-palette-color="#ffffff"><path d="M34.65-39.95L34.65-39.95Q36.25-39.95 38.15-39.2L38.15-39.2Q39.9-38.5 39.9-36.55L39.9-36.55 39.9-2.1Q39.9 0.3 36.95 0.3L36.95 0.3Q34 0.3 34-2.1L34-2.1 34-27.8 32.55-27.95 30.55-21.45 24.55-1.45Q24 0.3 21.85 0.25L21.85 0.25Q20.9 0.2 20.2-0.25 19.5-0.7 19.25-1.55L19.25-1.55 15.65-13.2Q14.55-16.65 13.45-20.23 12.35-23.8 11.05-28.15L11.05-28.15 9.6-27.95 9.6-2.1Q9.6 0.3 6.65 0.3L6.65 0.3Q3.7 0.3 3.7-2.1L3.7-2.1 3.7-36.55Q3.7-38.45 5.45-39.2L5.45-39.2Q7.3-39.95 9-39.9L9-39.9Q9.75-39.9 10.55-39.7 11.35-39.5 12.05-39.13 12.75-38.75 13.3-38.18 13.85-37.6 14.15-36.85L14.15-36.85 22-10.1Q22.85-13.05 23.8-16.5 24.75-19.95 25.75-23.5 26.75-27.05 27.73-30.53 28.7-34 29.55-37L29.55-37Q29.85-37.7 30.4-38.25 30.95-38.8 31.65-39.18 32.35-39.55 33.13-39.75 33.9-39.95 34.65-39.95Z" opacity="1" transform="matrix(1,0,0,1,0,0)" fill="#ffffff" class="wordmark-text-0" data-fill-palette-color="quaternary" id="text-0"></path></svg></g></svg></g></svg></g></svg></g><g></g></svg></g></svg></g></svg></g></svg></g><defs></defs></svg><rect width="333.90454557049503" height="333.90454557049503" fill="none" stroke="none" visibility="hidden"></rect></g></svg></g></svg>