<svg xmlns="http://www.w3.org/2000/svg" version="1.1" xmlns:xlink="http://www.w3.org/1999/xlink" xmlns:svgjs="http://svgjs.dev/svgjs" width="2000" height="1500" viewBox="0 0 2000 1500"><rect width="2000" height="1500" fill="#000000"></rect><g transform="matrix(0.75,0,0,0.75,249.090909090909,278.98548387096776)"><svg viewBox="0 0 396 248" data-background-color="#051726" preserveAspectRatio="xMidYMid meet" height="1252" width="2000" xmlns="http://www.w3.org/2000/svg" xmlns:xlink="http://www.w3.org/1999/xlink"><g id="tight-bounds" transform="matrix(1,0,0,1,0.2400000000000091,0.4000000000000057)"><svg viewBox="0 0 395.52 247.2" height="247.2" width="395.52"><g><svg></svg></g><g><svg viewBox="0 0 395.52 247.2" height="247.2" width="395.52"><mask id="aacc5b5f-c859-4688-a946-af311f30c105"><rect width="395.52" height="247.2" fill="white"></rect><g transform="matrix(1,0,0,1,114.54229007633586,37.08)" id="clone"><svg viewBox="0 0 166.43541984732826 173.04" height="173.04" width="166.43541984732826"><g><svg viewBox="0 0 166.43541984732826 173.04" height="173.04" width="166.43541984732826"><g><svg viewBox="0 0 166.43541984732826 173.04" height="173.04" width="166.43541984732826"><g><svg viewBox="0 0 166.43541984732826 173.04" height="173.04" width="166.43541984732826"><g id="SvgjsG4920"><svg viewBox="0 0 166.43541984732826 173.04" height="173.04" width="166.43541984732826" id="SvgjsSvg4919"><g><svg viewBox="0 0 166.43541984732826 173.04" height="173.04" width="166.43541984732826"><g transform="matrix(1,0,0,1,0,0)"><svg width="166.43541984732826" viewBox="-1.8 -37.3 38.8 40.3" height="173.04" data-palette-color="#ffffff"><path d="M1.2 0L6.05-34.3 12.65-34.3 15.5-11.8Q15.8-9.7 15.85-5.1L15.85-5.1 16.05-5.1Q17.15-9.8 17.95-11.8L17.95-11.8 27.25-34.3 34-34.3 29.15 0 24.75 0 28.25-24.9 29-29.2 28.8-29.2Q27.7-25.85 27.25-24.9L27.25-24.9 16.9 0 12.95 0 9.7-24.9Q9.6-25.6 9.35-29.2L9.35-29.2 9.15-29.2 8.65-24.9 5.15 0 1.2 0Z" opacity="1" transform="matrix(1,0,0,1,0,0)" fill="black" class="wordmark-text-0" id="SvgjsPath4918" stroke-width="5" stroke="black" stroke-linejoin="round"></path></svg></g></svg></g></svg></g></svg></g><g></g></svg></g></svg></g></svg></g></mask><g mask="url(#aacc5b5f-c859-4688-a946-af311f30c105)"><g><path d="M114.87 210.28l24.513-173.36h33.358l14.405 113.72c1.011 7.076 1.601 18.364 1.769 33.864v0h1.011c3.706-15.837 6.907-27.124 9.603-33.864v0l47.005-113.72h34.116l-24.513 173.36h-22.239l17.69-125.85 3.79-21.734h-1.01c-3.706 11.288-6.318 18.532-7.834 21.734v0l-52.312 125.85h-19.964l-16.427-125.85c-0.337-2.359-0.927-9.603-1.769-21.734v0h-1.01l-2.528 21.734-17.689 125.85z" fill="#ffffff" fill-rule="nonzero" stroke="none" stroke-width="1" stroke-linecap="butt" stroke-linejoin="miter" stroke-miterlimit="10" stroke-dasharray="" stroke-dashoffset="0" font-family="none" font-weight="none" font-size="none" text-anchor="none" style="mix-blend-mode: normal" data-fill-palette-color="tertiary"></path></g></g><g transform="matrix(1,0,0,1,114.54229007633586,37.08)"><svg viewBox="0 0 166.43541984732826 173.04" height="173.04" width="166.43541984732826"><g><svg viewBox="0 0 166.43541984732826 173.04" height="173.04" width="166.43541984732826"><g><svg viewBox="0 0 166.43541984732826 173.04" height="173.04" width="166.43541984732826"><g><svg viewBox="0 0 166.43541984732826 173.04" height="173.04" width="166.43541984732826"><g id="textblocktransform"><svg viewBox="0 0 166.43541984732826 173.04" height="173.04" width="166.43541984732826" id="textblock"><g><svg viewBox="0 0 166.43541984732826 173.04" height="173.04" width="166.43541984732826"><g transform="matrix(1,0,0,1,0,0)"><svg width="166.43541984732826" viewBox="-1.8 -37.3 38.8 40.3" height="173.04" data-palette-color="#ffffff"><path d="M1.2 0L6.05-34.3 12.65-34.3 15.5-11.8Q15.8-9.7 15.85-5.1L15.85-5.1 16.05-5.1Q17.15-9.8 17.95-11.8L17.95-11.8 27.25-34.3 34-34.3 29.15 0 24.75 0 28.25-24.9 29-29.2 28.8-29.2Q27.7-25.85 27.25-24.9L27.25-24.9 16.9 0 12.95 0 9.7-24.9Q9.6-25.6 9.35-29.2L9.35-29.2 9.15-29.2 8.65-24.9 5.15 0 1.2 0Z" opacity="1" transform="matrix(1,0,0,1,0,0)" fill="#ffffff" class="wordmark-text-0" data-fill-palette-color="primary" id="text-0"></path></svg></g></svg></g></svg></g></svg></g><g></g></svg></g></svg></g></svg></g></svg></g><defs></defs></svg><rect width="395.52" height="247.2" fill="none" stroke="none" visibility="hidden"></rect></g></svg></g></svg>