<svg xmlns="http://www.w3.org/2000/svg" version="1.1" xmlns:xlink="http://www.w3.org/1999/xlink" xmlns:svgjs="http://svgjs.dev/svgjs" width="2000" height="1999" viewBox="0 0 2000 1999"><g transform="matrix(1,0,0,1,-0.431486880466764,-0.4312711370263287)"><svg viewBox="0 0 343 343" data-background-color="#000000" preserveAspectRatio="xMidYMid meet" height="1999" width="2000" xmlns="http://www.w3.org/2000/svg" xmlns:xlink="http://www.w3.org/1999/xlink"><g id="tight-bounds" transform="matrix(1,0,0,1,0.0740000000000407,0.07400000000001228)"><svg viewBox="0 0 342.85155851775386 342.85155851775386" height="342.85155851775386" width="342.85155851775386"><g><svg></svg></g><g><svg viewBox="0 0 342.85155851775386 342.85155851775386" height="342.85155851775386" width="342.85155851775386"><g><path d="M0 171.426c0-94.676 76.75-171.426 171.426-171.426 94.676 0 171.426 76.75 171.426 171.426 0 94.676-76.75 171.426-171.426 171.426-94.676 0-171.426-76.75-171.426-171.426zM171.426 325.971c85.353 0 154.545-69.192 154.545-154.545 0-85.353-69.192-154.545-154.545-154.546-85.353 0-154.545 69.192-154.546 154.546 0 85.353 69.192 154.545 154.546 154.545z" data-fill-palette-color="tertiary" fill="#915eff" stroke="transparent"></path><ellipse rx="164.56874808852186" ry="164.56874808852186" cx="171.42577925887693" cy="171.42577925887693" fill="#915eff" stroke="transparent" stroke-width="0" fill-opacity="1" data-fill-palette-color="tertiary"></ellipse></g><g transform="matrix(1,0,0,1,64.84655864529837,77.83447346593655)"><svg viewBox="0 0 213.1584412271571 187.18261158588075" height="187.18261158588075" width="213.1584412271571"><g><svg viewBox="0 0 213.1584412271571 187.18261158588075" height="187.18261158588075" width="213.1584412271571"><g><svg viewBox="0 0 213.1584412271571 187.18261158588075" height="187.18261158588075" width="213.1584412271571"><g><svg viewBox="0 0 213.1584412271571 187.18261158588075" height="187.18261158588075" width="213.1584412271571"><g id="textblocktransform"><svg viewBox="0 0 213.1584412271571 187.18261158588075" height="187.18261158588075" width="213.1584412271571" id="textblock"><g><svg viewBox="0 0 213.1584412271571 187.18261158588075" height="187.18261158588075" width="213.1584412271571"><g transform="matrix(1,0,0,1,0,0)"><svg width="213.1584412271571" viewBox="3.66 -35.01 39.870000000000005 35.01" height="187.18261158588075" data-palette-color="#ffffff"><path d="M23.54-14.01L23.73-14.01Q24.07-15.33 24.48-16.61 24.88-17.9 25.46-19.48L25.46-19.48Q25.98-20.9 26.71-22.74 27.44-24.58 28.26-26.49 29.08-28.39 29.86-30.03 30.64-31.67 31.27-32.64L31.27-32.64Q32.06-33.84 32.97-34.42 33.89-35.01 35.67-35.01L35.67-35.01 38.87-35.01Q40.14-35.01 41-34.63 41.87-34.25 42.24-32.84L42.24-32.84Q42.5-31.79 42.75-29.76 42.99-27.73 43.16-24.15 43.33-20.56 43.43-14.93 43.53-9.3 43.53-1.03L43.53-1.03Q43.53-0.59 43.24-0.29 42.94 0 42.53 0L42.53 0 36.96 0Q36.55 0 36.25-0.29 35.96-0.59 35.96-1.05L35.96-1.05Q35.96-7.5 35.96-11.99 35.96-16.48 35.94-19.43 35.91-22.39 35.88-24.13 35.84-25.88 35.77-26.83L35.77-26.83 35.62-26.83Q34.33-23.85 32.86-20.2 31.4-16.55 30-12.68 28.61-8.81 27.51-5.13L27.51-5.13Q27.2-4.03 26.72-3.6 26.25-3.17 24.56-3.17L24.56-3.17 21.75-3.17Q20.31-3.17 19.84-3.54 19.36-3.91 19.02-5.13L19.02-5.13Q18.21-7.91 17.24-11.01 16.26-14.11 15.22-17.1 14.18-20.09 13.22-22.62 12.26-25.15 11.5-26.83L11.5-26.83 11.35-26.83Q11.16-23.95 11.01-19.82 10.86-15.7 10.78-10.86 10.69-6.03 10.67-1L10.67-1Q10.67-0.56 10.38-0.28 10.08 0 9.67 0L9.67 0 4.66 0Q4.25 0 3.96-0.29 3.66-0.59 3.66-1.05L3.66-1.05Q3.69-14.06 4.19-21.83 4.69-29.59 5.27-32.23L5.27-32.23Q5.66-33.96 6.65-34.48 7.64-35.01 8.91-35.01L8.91-35.01 12.87-35.01Q14.21-35.01 14.83-34.53 15.45-34.06 16.36-32.69L16.36-32.69Q16.89-31.88 17.64-30.27 18.38-28.66 19.19-26.7 20-24.73 20.72-22.81 21.44-20.9 21.9-19.48L21.9-19.48Q22.39-18.04 22.8-16.69 23.22-15.33 23.54-14.01L23.54-14.01Z" opacity="1" transform="matrix(1,0,0,1,0,0)" fill="#ffffff" class="wordmark-text-0" data-fill-palette-color="quaternary" id="text-0"></path></svg></g></svg></g></svg></g></svg></g><g></g></svg></g></svg></g></svg></g></svg></g><defs></defs></svg><rect width="342.85155851775386" height="342.85155851775386" fill="none" stroke="none" visibility="hidden"></rect></g></svg></g></svg>